<svg width="92" height="25" viewBox="0 0 92 25" fill="none" xmlns="http://www.w3.org/2000/svg">
<path d="M4.2151 3.76459C6.31886 3.75418 8.42264 3.75779 10.5263 3.77544C9.65766 4.18114 9.22747 4.49122 9.66824 5.49609C11.3923 9.42696 12.6699 13.202 11.7622 17.525C11.6783 17.9419 11.5413 18.3676 11.4187 18.7767C9.66468 14.5381 8.05551 10.189 6.32508 5.93757C5.82108 4.69935 5.4423 4.26337 4.2151 3.76459Z" fill="black"/>
<path d="M54.1139 8.51065C55.8577 8.34506 56.5125 8.78285 56.8884 10.4091C56.2893 9.90273 55.7367 9.56914 54.9127 9.55457C54.2507 9.53811 53.6093 9.78421 53.1357 10.237C51.7974 11.5035 51.7909 14.5494 53.0778 15.7898C54.5438 17.2027 57.1225 16.3173 57.4913 14.3634C57.654 13.5015 57.6073 12.706 57.607 11.8564L57.608 8.70408L58.9337 8.70686L58.9277 12.1493L58.9154 20.535L57.5939 20.5299L57.5853 15.8552C57.4956 16.0103 57.3987 16.161 57.2942 16.3069C56.5993 17.2675 55.3867 17.6097 54.2323 17.5338C52.3105 17.4082 51.1033 15.871 50.8452 14.0945C50.489 11.6386 51.2856 8.92838 54.1139 8.51065Z" fill="black"/>
<path d="M36.4587 8.48652C38.0257 8.31937 39.8546 8.73779 40.3152 10.4184C40.4826 11.029 40.4502 11.5055 40.4398 12.1304C38.9168 13.4201 37.032 12.9868 35.3282 13.7122C34.0271 14.2662 34.3268 16.0381 35.7014 16.3969C36.3779 16.5683 37.0961 16.4743 37.7026 16.1348C38.6159 15.6147 38.8813 14.8269 39.1285 13.9013C39.5494 13.4717 39.8619 13.3477 40.4384 13.1977C40.4512 14.558 40.4345 15.9445 40.4324 17.307C40.0116 17.3166 39.5708 17.3144 39.1484 17.3179L39.1511 15.7881L39.125 15.7539C38.1659 17.4385 36.612 17.8489 34.7387 17.3051C33.4019 16.9171 32.8575 15.3133 33.3282 14.1045C33.9031 12.6281 35.9576 12.4671 37.3298 12.2816C38.4853 12.1823 39.6033 11.8478 38.9405 10.4451C38.44 9.38576 36.6906 9.32512 35.7501 9.77251C35.2016 10.0334 35.0014 10.4091 34.8261 10.9306L33.4542 10.9363C33.8209 9.34353 34.8514 8.68399 36.4587 8.48652Z" fill="black"/>
<path d="M74.4453 8.5407C76.344 8.33133 78.116 8.93611 78.5701 10.8991L77.2243 10.9012C76.7845 9.71536 75.8087 9.52137 74.6551 9.59156C73.8258 9.642 72.8309 10.1791 72.9894 11.1043C73.201 12.3372 75.4222 12.2802 76.4072 12.5718C77.5587 12.8632 78.5906 13.4161 78.656 14.7205C78.7559 16.7147 77.2154 17.3824 75.4623 17.5726C73.4544 17.6309 71.8047 17.0007 71.487 14.8977C71.9178 14.8802 72.3614 14.8862 72.7937 14.8867C72.9622 15.3632 73.1394 15.7795 73.5605 16.0937C74.627 16.8889 77.6488 16.6408 77.3297 14.8171C77.2022 14.0882 76.52 13.7874 75.8643 13.6335C74.3356 13.2747 71.9855 13.2759 71.7226 11.3114C71.5004 9.61125 72.904 8.7355 74.4453 8.5407Z" fill="black"/>
<path d="M23.3318 5.28822L24.7925 5.28728C25.2434 6.44476 25.6821 7.77803 26.0998 8.95749L29.0615 17.2935L27.7186 17.309C26.3487 13.3404 24.7803 9.24505 23.3318 5.28822Z" fill="black"/>
<path d="M79.8255 5.37061L81.1584 5.37395C81.2072 9.25406 81.1882 13.4868 81.1373 17.3661L79.8085 17.375L79.8255 5.37061Z" fill="black"/>
<path d="M45.5898 8.49953C47.3408 8.36453 48.9206 8.95832 49.3405 10.8024C49.556 11.7469 49.4767 12.8795 49.4728 13.8553L49.4718 17.3228L48.1369 17.3338L48.1331 16.4088L48.1457 13.3534C48.151 11.8576 48.3116 9.91776 46.277 9.61928C45.2877 9.4741 44.6704 9.79301 43.8994 10.3678C44.0757 9.21851 44.3497 8.71549 45.5898 8.49953Z" fill="black"/>
<path d="M60.1775 8.70558L61.5078 8.70922C61.525 9.95242 61.5103 11.2082 61.5059 12.4804C61.4999 14.1244 61.2342 16.1885 63.5167 16.4375C64.4079 16.5347 65.0766 16.1971 65.7524 15.6466C65.685 16.0236 65.6472 16.2074 65.5243 16.5683C65.1082 17.4304 64.3864 17.5432 63.5356 17.5589C61.1787 17.6025 60.0733 15.9907 60.168 13.8215C60.1871 13.3932 60.17 12.7876 60.1712 12.3363L60.1775 8.70558Z" fill="black"/>
<path d="M83.6119 8.55387C83.7913 8.54467 83.9702 8.53844 84.1496 8.53534C84.9952 8.52535 85.8938 8.79527 86.5057 9.38448C87.6622 10.4993 87.437 12.3203 87.4323 13.7862L87.4332 17.3714L86.1034 17.3897L86.1003 16.3634C86.0909 15.3792 86.0898 14.3351 86.1098 13.327C86.1415 11.7178 86.2089 9.85523 84.0652 9.65139C83.2048 9.56962 82.5603 9.873 81.9072 10.4181C81.9716 9.26226 82.4201 8.73529 83.6119 8.55387Z" fill="black"/>
<path d="M32.4941 5.28457C32.741 5.31812 33.5378 5.30158 33.8248 5.30214C33.4461 6.43427 32.9483 7.69618 32.5314 8.82613L30.0681 15.5147C29.9969 15.7161 29.8958 15.9444 29.8132 16.1444C29.4346 15.7168 29.0811 15.0508 29.233 14.469C29.4933 13.4718 29.8976 12.4655 30.2488 11.492L32.4941 5.28457Z" fill="black"/>
<path d="M68.9789 8.68314L70.409 8.69161C70.3796 11.5593 70.4437 14.4757 70.3877 17.3348L68.9704 17.3545C68.9268 14.5168 68.9655 11.5291 68.9789 8.68314Z" fill="black"/>
<path d="M66.4612 8.71729L67.8013 8.72195L67.7965 14.4577C67.7957 15.0565 67.8373 16.8287 67.7682 17.3355C67.3477 17.355 66.8804 17.3525 66.4558 17.3592L66.4612 8.71729Z" fill="black"/>
<path d="M41.8609 8.68069L43.1824 8.68447L43.1766 14.7285C43.1768 15.0785 43.203 17.0658 43.1392 17.3031C42.7576 17.3304 42.2338 17.3224 41.8415 17.3281C41.829 14.4456 41.8355 11.5631 41.8609 8.68069Z" fill="black"/>
<path d="M15.3294 3.78049C16.7244 3.76321 18.1426 3.77543 19.5394 3.77651C18.5705 4.09984 18.0723 4.53726 17.436 5.29639C16.9998 5.84897 16.5791 6.64237 16.226 7.27036C16.4152 6.43679 16.5489 5.32508 16.1301 4.5299C15.9219 4.13481 15.7036 4.00564 15.3294 3.78049Z" fill="black"/>
<path d="M68.9851 5.28174L70.4095 5.29055L70.4095 7.04308L68.9862 7.05192L68.9851 5.28174Z" fill="black"/>
</svg>
